<?xml version="1.0" encoding="UTF-8" standalone="no"?>
<!DOCTYPE svg PUBLIC "-//W3C//DTD SVG 1.1//EN" "http://www.w3.org/Graphics/SVG/1.1/DTD/svg11.dtd">
<!-- Created with Vectornator (http://vectornator.io/) -->
<svg height="100%" stroke-miterlimit="10" style="fill-rule:nonzero;clip-rule:evenodd;stroke-linecap:round;stroke-linejoin:round;" version="1.1" viewBox="84.7813 168.406 672.156 252.594" width="100%" xml:space="preserve" xmlns="http://www.w3.org/2000/svg" xmlns:vectornator="http://vectornator.io" xmlns:xlink="http://www.w3.org/1999/xlink">
<defs/>
<clipPath id="ArtboardFrame">
<rect height="252.594" width="672.156" x="84.7813" y="168.406"/>
</clipPath>
<g clip-path="url(#ArtboardFrame)" id="Layer" vectornator:layerName="Layer">
<g opacity="1" vectornator:layerName="Group 2">
<path d="M211.062 168.406C141.311 168.406 84.7813 224.936 84.7813 294.687C84.7812 364.439 141.311 421 211.062 421L603.844 421C701.094 391.557 756.788 302.858 756.938 168.406C756.938 168.406 603.844 168.406 603.844 168.406L211.062 168.406Z" fill="#303030" fill-rule="nonzero" opacity="1" stroke="none"/>
<path d="M261.065 219.923C261.495 216.628 260.833 212.991 262.356 210.037C263.161 208.476 265.458 208.021 267.214 207.998C270.987 207.949 275.32 211.59 275.652 215.43C275.887 218.152 272.294 220.854 273.458 223.325C275.583 227.835 281.57 229.476 284.251 233.679C287.642 238.996 289.759 245.125 291.268 251.247C292.633 256.788 287.015 261.922 286.01 267.54C285.585 269.92 287.428 272.321 287.087 274.715C286.596 278.155 284.069 281.093 283.586 284.535C283.023 288.548 283.1 292.734 284.004 296.684C285.319 302.432 290.701 308.436 290.147 315.016C289.123 327.175 276.826 332.812 277.678 345.618C277.678 345.618 278.385 346.129 279.175 345.031C281.035 346.479 284.013 346.962 284.634 349.236C285.473 352.311 283.787 355.591 282.803 358.623C282.332 360.075 280.23 361.084 278.743 360.74C277.922 353.914 277.922 353.914 277.101 347.087C276.366 349.448 276.115 352.018 274.896 354.17C273.079 357.377 269.59 359.533 268.132 362.919C267.045 365.441 268.933 368.746 267.588 371.141C265.143 375.492 259.675 378.252 254.712 378.785C257.767 372.42 261.125 366.191 263.877 359.69C266.145 354.335 268.801 348.791 268.879 342.976C264.734 342.016 260.261 340.435 257.498 337.201C247.988 326.069 266.788 315.974 271.362 308.865C272.559 307.006 272.019 304.382 271.494 302.235C270.787 299.343 269.003 296.826 267.758 294.122C264.357 298.239 261.727 303.142 257.554 306.474C254.641 308.801 250.227 308.473 247.15 310.579C239.865 315.565 244.544 328.898 238.133 331.424C235.965 332.279 233.448 332.416 231.162 331.962C227.414 331.219 224.011 329.263 220.436 327.913C218.566 330.952 215.156 333.478 214.827 337.031C214.496 340.59 218.112 343.514 218.661 347.047C219.177 350.373 217.699 353.763 217.948 357.12C218.227 360.865 217.597 365.473 220.229 368.151C222.92 370.889 227.884 369.365 231.429 370.838C233.876 371.854 235.398 374.55 237.877 375.482C240.169 376.344 242.761 375.839 245.202 376.018C246.13 380.168 247.759 384.221 247.985 388.467C248.002 388.777 245.541 393.278 243.854 390.858C241.304 387.201 241.625 381.362 236.264 380.038C229.929 378.473 223.292 378.475 216.905 377.141C211.985 376.113 210.152 370.671 208.381 366.749C206.988 363.667 205.823 360.45 205.11 357.143C204.719 355.328 205.11 353.429 205.11 351.572C202.874 352.733 200.824 354.365 198.4 355.055C194.441 356.183 189.739 354.86 186.197 356.958C183.548 358.528 183.679 362.689 181.634 364.991C178.91 368.059 175.091 369.971 172.123 372.804C169.848 374.976 172.648 375.286 172.495 377.664C172.26 381.338 167.719 380.35 165.769 381.401C164.08 382.309 163.202 384.411 161.46 385.211C160.184 385.798 158.653 385.281 157.249 385.316C156.55 381.271 160.844 377.763 163.73 374.844C164.084 374.486 164.727 374.98 165.225 375.048C169.649 366.594 173.318 357.699 178.497 349.686C182.497 343.498 191.767 343.277 198.348 339.963C202.218 338.013 202.384 334.722 203.615 331.051C202.681 330.678 202.056 330.123 201.98 328.859C201.904 327.595 203.604 324.924 201.296 323.93C196.744 321.969 191.549 321.93 186.897 320.222C184.99 319.521 183.003 318.471 181.861 316.792C178.366 311.653 179.644 304.48 177.366 298.698C174.431 291.25 164.504 295.042 159.514 289.78C156.204 286.289 154.706 281.221 151.058 278.086C149.948 280.732 148.012 283.169 147.727 286.024C146.534 297.963 160.761 302.829 167.116 309.561C169.392 311.972 171.164 314.954 172.231 318.094C175.192 326.805 166.572 335.617 164.347 344.544C163.298 348.752 168.024 352.821 170.083 355.275C168.505 356.436 165.699 356.724 164.208 355.453C161.403 353.064 157.653 350.81 156.836 347.218C156.087 343.925 159.619 340.979 160.156 337.644C160.566 335.099 159.242 332.48 159.619 329.93C160.137 326.43 161.737 323.179 162.795 319.803C154.311 314.98 154.311 314.98 145.826 310.158C147.881 317.124 151.794 324.511 149.99 331.547C147.969 339.429 143.327 346.478 141.304 354.359C139.952 359.627 142.452 365.352 144.644 370.329C142.686 371.254 139.684 370.374 138.369 368.655C135.875 365.398 133.141 361.926 132.406 357.891C132.035 355.851 134.947 354.467 135.417 352.448C136.316 348.578 135.416 344.413 136.43 340.572C137.299 337.281 140.412 334.783 140.968 331.425C141.35 329.116 139.978 326.82 139.063 324.666C137.114 320.079 133.933 316.023 132.406 311.279C131.354 308.009 130.76 304.558 130.664 301.124C130.606 299.05 131.362 296.804 131.946 294.812C132.821 291.83 135.201 289.364 135.77 286.308C136.604 281.823 135.317 277.126 136.071 272.627C136.598 269.482 139.286 266.895 139.557 263.717C139.796 260.915 137.645 258.337 137.528 255.527C136.869 239.687 149.401 231.005 160.755 222.546C164.848 219.497 171.011 222.714 176.054 221.932C181.033 221.159 185.535 218.472 190.415 217.22C193.238 216.497 196.188 216.426 199.074 216.028C199.714 212.142 199.354 207.949 200.995 204.368C201.828 202.549 203.97 201.185 205.963 200.997C208.174 200.788 210.312 202.157 212.211 203.31C216.826 206.113 214.153 212.522 211.165 215.102C209.761 216.315 207.876 216.821 206.231 217.681C213.186 218.908 219.922 219.036 225.445 213.34C229.456 209.203 228.347 198.947 234.939 198.486C238.6 198.23 242.298 199.39 245.722 200.711C251.185 202.821 254.174 206.928 257.792 211.706C259.517 213.984 260.579 217.108 261.065 219.923ZM215.914 290.385C211.76 289.574 209.657 284.239 208.287 280.235C207.672 278.437 209.491 278.296 210.342 278.086C210.762 272.791 215.22 267.723 218.109 263.469C214.806 260.647 209.909 260.571 205.928 258.83C203.622 257.821 201.694 256.105 199.577 254.742C199.184 255.22 199.184 255.22 198.791 255.698C202.038 258.117 202.705 262.905 203.594 266.855C204.721 271.859 205.783 276.612 203.118 281.12C199.8 286.734 195.352 291.671 192.4 297.485C191.045 300.155 191.996 308.602 192.143 310.975C188.159 310.962 185.814 305.962 183.503 302.717C184.567 305.602 185.208 308.68 186.695 311.371C189.654 316.725 201.097 313.907 205.11 313.895C206.432 313.891 207.673 314.981 208.978 314.773C209.898 314.627 210.386 313.553 211.09 312.943C210.355 312.015 209.299 311.267 208.886 310.158C208.623 309.449 209.35 308.66 209.221 307.915C209.123 307.353 208.149 307.065 208.252 306.504C208.761 303.727 209.385 300.825 210.95 298.475C213.712 294.328 221.511 297.175 223.352 300.637C225.094 303.915 223.973 308.535 221.893 311.279C221.289 312.075 219.777 311.475 219.014 312.121C218.042 312.943 217.695 314.3 217.035 315.39C223.601 318.086 227.104 321.321 233.818 325.446C236.888 320.597 237.542 314.586 239.628 309.24C239.9 308.542 240.878 308.857 241.375 308.296C241.787 307.832 241.665 306.937 242.079 306.476C245.366 302.807 251.316 302.664 255.218 299.485C259.343 296.124 260.815 290.431 263.72 285.973C265.239 283.642 267.159 281.598 268.879 279.411C267.173 277.449 264.836 275.891 263.761 273.523C262.631 271.034 262.938 268.117 262.526 265.414C259.094 266.912 249.123 267.096 246.898 266.909C246.218 269.762 245.96 272.748 244.859 275.467C243.446 278.958 240.887 281.902 239.425 285.373C238.47 287.642 238.729 290.326 237.665 292.546C236.901 294.139 234.553 294.232 233.105 295.243C231.975 296.032 231.692 297.9 230.394 298.364C229.131 298.815 227.717 298.526 226.378 298.607C227.307 296.414 228.038 294.127 229.164 292.029C230.241 290.022 232.232 288.505 232.956 286.346C235.73 278.064 235.712 268.748 239.891 261.079C240.932 259.169 246.009 256.009 249.123 255.639C253.265 255.146 256.772 255.359 260.711 253.989C261.762 253.624 263.005 251.887 263.103 250.779C263.425 247.153 263.382 243.444 262.712 239.866C262.309 237.707 260.574 236.975 260.387 234.787C260.239 233.056 262.232 230.691 261.786 229.012C259.508 220.433 250.638 217.193 250.176 212.274C249.528 205.357 241.869 202.465 238.676 203.684C236.695 204.44 234.607 205.543 233.462 207.328C231.354 210.614 231.023 214.771 229.311 218.28C227.941 221.089 224.043 223.882 221.349 224.896C218.348 226.025 214.62 225.334 212.007 227.194C210.296 228.411 210.805 231.247 209.819 233.101C208.545 235.493 206.515 237.433 205.274 239.843C204.166 241.994 206.364 245.067 208.381 246.405C214.422 250.412 226.209 251.831 228.641 260.705C230.945 269.113 218.78 273.295 215.504 279.453C213.311 283.577 215.459 282.205 216.695 286.682C217.031 287.898 216.174 289.15 215.914 290.385ZM145.133 251.166C147.498 253.331 146.293 256.173 149.563 256.991C149.75 255.972 152.599 256.173 151.058 254.61C149.983 251.032 149.096 247.289 152.162 244.258C153.061 243.369 157.272 242.661 157.272 242.661C157.272 242.661 163.234 242.809 164.141 247.924C165.087 253.253 162.206 261.482 155.882 259.061C155.191 260.137 153.611 261.784 154.335 263.382C155.817 266.658 158.089 269.53 159.635 272.776C162.998 279.84 162.06 282.642 168.759 286.889C172.886 289.506 179.773 288.816 182.925 293.748C184.781 296.651 181.157 299.352 183.673 301.97C185.752 298.969 187.453 297.038 188.414 293.365C189.361 289.745 189.214 285.704 191.084 282.463C191.551 281.653 196.221 277.788 195.051 275.056C191.841 267.558 186.358 262.029 185.384 253.325C184.68 247.027 188.21 242.93 190.912 237.872C192.863 234.22 192.094 229.391 191.317 225.529C186.225 224.865 181.677 230.154 177.15 229.606C173.687 229.187 170.242 227.216 166.824 227.911C165.769 228.126 165.84 229.997 164.886 230.496C162.005 232.004 158.578 232.253 155.686 233.741C151.455 235.917 149.46 238.923 148.189 243.859C147.804 245.356 145.507 251.166 145.133 251.166ZM277.644 238.167C277.563 241.987 277.263 245.809 277.402 249.627C277.593 254.859 282.52 261.419 277.101 266.162C275.032 258.809 265.608 256.906 262.934 265.04C264.409 262.659 267.15 259.388 271.359 260.711C277.345 262.592 279.333 272.654 272.99 273.976C272.99 278.371 280.617 277.273 280.838 272.888C279.036 273.508 279.758 273.744 278.596 272.481C280.511 270.679 282.958 262.22 283.288 259.301C283.419 258.142 283.871 252.891 285.248 250.888C284.175 250.102 282.424 246.047 281.88 244.834C280.899 242.646 279.423 239.531 277.644 238.167ZM275.98 322.082C273.533 324.251 268.991 326.239 265.788 326.433C265.677 327.958 263.205 330.118 263.833 331.712C264.936 334.512 269.626 335.25 269.626 338.492C270.903 338.366 275.249 324.455 275.98 322.082Z" fill="#dfdeda" fill-rule="nonzero" opacity="1" stroke="none" vectornator:layerName="Curve 157"/>
<g opacity="1" vectornator:layerName="Group 28">
<path d="M340.708 391.23C340.369 391.23 340.2 390.972 340.2 390.456C340.2 389.941 340.369 389.683 340.708 389.683C342.907 389.683 345.424 388.694 348.259 386.718C351.093 384.741 354.075 380.959 357.206 375.372L393.501 309.362C393.671 309.018 394.073 308.91 394.707 309.039C395.342 309.168 395.701 309.362 395.786 309.62L406.954 380.4C407.292 382.721 407.736 384.569 408.286 385.944C408.836 387.319 409.725 388.286 410.951 388.845C412.178 389.404 414.018 389.683 416.472 389.683C416.81 389.683 416.98 389.941 416.98 390.456C416.98 390.972 416.81 391.23 416.472 391.23C414.526 391.23 412.517 391.144 410.444 390.972C408.371 390.8 406.108 390.714 403.654 390.714C401.201 390.714 399.043 390.8 397.182 390.972C395.321 391.144 393.375 391.23 391.344 391.23C391.09 391.23 390.963 390.972 390.963 390.456C390.963 389.941 391.09 389.683 391.344 389.683C395.321 389.683 397.795 389.038 398.768 387.749C399.741 386.46 399.974 384.01 399.466 380.4L389.821 319.418L392.994 315.679L361.394 374.212C359.025 378.509 357.734 381.775 357.523 384.01C357.311 386.245 357.925 387.749 359.363 388.523C360.801 389.296 362.917 389.683 365.709 389.683C366.047 389.683 366.216 389.941 366.216 390.456C366.216 390.972 366.005 391.23 365.582 391.23C363.89 391.23 361.838 391.144 359.427 390.972C357.015 390.8 354.668 390.714 352.383 390.714C349.93 390.714 347.92 390.8 346.355 390.972C344.79 391.144 342.907 391.23 340.708 391.23ZM369.516 355.775L371.419 353.197L398.705 353.197L398.959 355.775L369.516 355.775Z" fill="#dfdeda" fill-rule="nonzero" opacity="1" stroke="none"/>
<path d="M427.763 389.44L426.493 389.314C427.17 385.506 428.122 381.382 429.349 376.94C430.576 372.498 431.993 368.12 433.6 363.805C435.208 359.49 436.942 355.556 438.804 352.002C440.665 348.449 442.568 345.594 444.514 343.436C446.46 341.279 448.406 340.2 450.352 340.2C451.537 340.2 452.679 340.517 453.779 341.152C454.879 341.786 455.788 342.611 456.507 343.627C457.226 344.642 457.459 345.784 457.205 347.053C456.951 348.153 456.465 348.999 455.746 349.591C455.027 350.183 454.159 350.48 453.144 350.48C451.875 350.48 450.923 350.141 450.289 349.464C449.654 348.787 449.104 348.089 448.639 347.37C448.174 346.651 447.518 346.292 446.672 346.292C445.487 346.292 444.176 347.286 442.738 349.274C441.299 351.262 439.819 353.885 438.296 357.142C436.773 360.4 435.314 363.953 433.918 367.803C432.522 371.652 431.274 375.481 430.174 379.288C429.074 383.095 428.27 386.479 427.763 389.44ZM423.701 391.344C422.517 391.344 421.756 391.281 421.417 391.154C421.079 391.027 420.909 390.836 420.909 390.583C420.909 390.244 421.142 389.039 421.607 386.966C422.073 384.893 422.475 382.883 422.813 380.938L427.001 357.46C427.678 354.075 427.932 351.516 427.763 349.782C427.593 348.047 427.213 346.842 426.62 346.165C426.028 345.488 425.394 345.149 424.717 345.149C423.532 345.149 422.263 345.657 420.909 346.672C419.556 347.688 418.244 348.745 416.975 349.845C416.806 350.099 416.552 350.057 416.214 349.718C415.875 349.38 415.791 349.084 415.96 348.83C418.498 345.953 420.867 343.796 423.067 342.357C425.267 340.919 427.466 340.2 429.666 340.2C431.189 340.2 432.374 340.686 433.22 341.659C434.066 342.632 434.531 344.346 434.616 346.799C434.7 349.253 434.319 352.722 433.473 357.206L427.763 389.44C427.509 390.71 426.155 391.344 423.701 391.344Z" fill="#dfdeda" fill-rule="nonzero" opacity="1" stroke="none"/>
<path d="M471.368 391.23C467.833 391.23 464.935 390.428 462.675 388.825C460.414 387.222 458.708 385.126 457.557 382.537C456.406 379.947 455.749 377.09 455.584 373.966C455.42 370.842 455.666 367.76 456.324 364.718C457.393 359.539 459.345 355.161 462.181 351.585C465.018 348.009 468.265 345.255 471.923 343.323C475.581 341.391 479.178 340.425 482.713 340.425C484.686 340.425 486.515 340.734 488.2 341.35C489.886 341.967 491.201 342.809 492.146 343.878C493.092 344.947 493.482 346.221 493.318 347.701C493.236 348.77 492.866 349.694 492.208 350.475C491.55 351.256 490.564 351.647 489.248 351.647C488.098 351.647 487.173 351.277 486.474 350.537C485.775 349.797 485.22 348.852 484.809 347.701C484.563 346.714 483.946 345.707 482.96 344.68C481.973 343.652 480.452 343.138 478.397 343.138C475.684 343.138 473.341 343.94 471.368 345.543C469.395 347.146 467.813 349.283 466.621 351.955C465.429 354.627 464.504 357.607 463.846 360.895C463.024 365.417 462.88 369.671 463.415 373.658C463.949 377.645 465.285 380.851 467.422 383.276C469.56 385.702 472.601 386.914 476.547 386.914C479.26 386.914 481.685 386.339 483.823 385.188C485.96 384.037 487.892 382.763 489.618 381.365C489.865 381.201 490.153 381.283 490.482 381.612C490.81 381.94 490.851 382.228 490.605 382.475C487.234 385.517 483.946 387.736 480.74 389.134C477.534 390.531 474.41 391.23 471.368 391.23Z" fill="#dfdeda" fill-rule="nonzero" opacity="1" stroke="none"/>
</g>
<g opacity="1" vectornator:layerName="Group 27">
<path d="M369.602 253.691L370.807 251.109L402.731 251.109L403.574 253.691L369.602 253.691ZM430.438 287.645C430.759 287.645 430.92 287.903 430.92 288.42C430.92 288.936 430.759 289.194 430.438 289.194C428.109 289.194 425.74 289.108 423.331 288.936C420.921 288.764 418.592 288.678 416.343 288.678C413.854 288.678 411.685 288.764 409.838 288.936C407.991 289.108 405.943 289.194 403.694 289.194C403.373 289.194 403.212 288.936 403.212 288.42C403.212 287.903 403.373 287.645 403.694 287.645C407.951 287.645 410.601 286.978 411.645 285.644C412.689 284.31 412.408 281.792 410.802 278.091L384.058 217.542L387.07 213.539L363.699 272.798C361.691 278.048 361.571 281.836 363.338 284.159C365.105 286.483 368.598 287.645 373.818 287.645C374.22 287.645 374.421 287.903 374.421 288.42C374.421 288.936 374.22 289.194 373.818 289.194C371.409 289.194 369.201 289.108 367.193 288.936C365.185 288.764 362.655 288.678 359.603 288.678C356.712 288.678 354.403 288.764 352.676 288.936C350.95 289.108 348.842 289.194 346.352 289.194C346.031 289.194 345.87 288.936 345.87 288.42C345.87 287.903 346.031 287.645 346.352 287.645C348.52 287.645 350.408 287.193 352.014 286.29C353.62 285.386 355.126 283.794 356.531 281.513C357.937 279.232 359.483 275.94 361.169 271.636L386.588 207.342C386.749 207.084 387.03 206.955 387.431 206.955C387.833 206.955 388.074 207.084 388.154 207.342L416.584 271.507C418.432 275.725 420.078 279.017 421.524 281.384C422.969 283.751 424.395 285.386 425.8 286.29C427.206 287.193 428.752 287.645 430.438 287.645Z" fill="#dfdeda" fill-rule="nonzero" opacity="1" stroke="none"/>
<path d="M436.731 289.17C436.478 289.17 436.351 288.92 436.351 288.419C436.351 287.919 436.478 287.668 436.731 287.668C440.031 287.668 442.189 287.105 443.204 285.979C444.219 284.853 444.727 282.538 444.727 279.034L444.727 214.342C444.727 211.422 444.431 209.274 443.838 207.897C443.246 206.521 442.189 205.833 440.666 205.833C439.397 205.833 437.451 206.417 434.828 207.585C434.574 207.751 434.32 207.585 434.066 207.084C433.813 206.584 433.855 206.292 434.193 206.208L450.438 198.575C450.607 198.492 450.818 198.45 451.072 198.45C451.241 198.45 451.474 198.554 451.77 198.763C452.066 198.971 452.214 199.201 452.214 199.451L452.214 279.034C452.214 282.538 452.68 284.853 453.61 285.979C454.541 287.105 456.698 287.668 460.083 287.668C460.336 287.668 460.463 287.919 460.463 288.419C460.463 288.92 460.336 289.17 460.083 289.17C458.644 289.17 456.91 289.128 454.879 289.045C452.849 288.961 450.691 288.92 448.407 288.92C446.207 288.92 444.071 288.961 441.998 289.045C439.925 289.128 438.17 289.17 436.731 289.17Z" fill="#dfdeda" fill-rule="nonzero" opacity="1" stroke="none"/>
<path d="M463.885 289.17C463.714 289.17 463.628 288.913 463.628 288.399C463.628 287.885 463.714 287.628 463.885 287.628C467.226 287.628 469.432 287.05 470.502 285.894C471.573 284.737 472.108 282.36 472.108 278.762L472.108 254.735C472.108 251.737 471.809 249.531 471.209 248.118C470.609 246.705 469.496 245.998 467.868 245.998C467.183 245.998 466.369 246.148 465.427 246.448C464.485 246.747 463.371 247.197 462.086 247.797C461.744 247.882 461.465 247.69 461.251 247.219C461.037 246.747 461.058 246.426 461.315 246.255L478.019 238.546C478.276 238.46 478.447 238.417 478.533 238.417C478.704 238.417 478.918 238.524 479.175 238.738C479.432 238.952 479.561 239.188 479.561 239.445C479.561 240.13 479.518 241.801 479.432 244.456C479.347 247.111 479.304 250.495 479.304 254.607L479.304 278.762C479.304 282.36 479.796 284.737 480.781 285.894C481.767 287.05 483.972 287.628 487.399 287.628C487.656 287.628 487.784 287.885 487.784 288.399C487.784 288.913 487.656 289.17 487.399 289.17C485.857 289.17 484.079 289.127 482.066 289.042C480.053 288.956 477.933 288.913 475.706 288.913C473.479 288.913 471.359 288.956 469.346 289.042C467.333 289.127 465.513 289.17 463.885 289.17ZM474.678 223.384C472.965 223.384 471.595 222.913 470.567 221.971C469.539 221.028 469.025 219.701 469.025 217.987C469.025 216.274 469.539 214.946 470.567 214.004C471.595 213.062 472.965 212.591 474.678 212.591C476.391 212.591 477.719 213.062 478.661 214.004C479.604 214.946 480.075 216.274 480.075 217.987C480.075 221.585 478.276 223.384 474.678 223.384Z" fill="#dfdeda" fill-rule="nonzero" opacity="1" stroke="none"/>
<path d="M508.286 319.202C502.663 319.202 498.285 317.94 495.152 315.414C492.019 312.888 490.453 309.741 490.453 305.973C490.453 302.124 492.059 298.456 495.272 294.968C498.486 291.48 503.024 288.052 508.888 284.685L510.214 286.248C507.884 287.371 505.735 288.614 503.767 289.977C501.799 291.34 500.233 292.963 499.068 294.848C497.903 296.732 497.321 299.117 497.321 302.004C497.321 304.73 497.943 307.115 499.188 309.16C500.434 311.204 502.241 312.788 504.611 313.91C506.98 315.033 509.852 315.594 513.226 315.594C518.769 315.594 523.307 314.151 526.842 311.265C530.376 308.378 532.143 304.449 532.143 299.478C532.143 296.11 531.32 293.705 529.673 292.262C528.027 290.819 525.777 289.917 522.926 289.556C520.074 289.195 516.76 289.014 512.985 289.014C509.45 288.934 506.197 288.754 503.225 288.473C500.253 288.193 497.883 287.431 496.116 286.188C494.349 284.945 493.465 283.001 493.465 280.355C493.465 277.629 494.349 275.243 496.116 273.199C497.883 271.154 500.333 268.929 503.466 266.524L504.791 267.606C502.864 269.13 501.498 270.533 500.695 271.816C499.891 273.099 499.49 274.502 499.49 276.025C499.49 277.789 500.052 279.152 501.177 280.114C502.301 281.077 504.149 281.738 506.719 282.099C509.29 282.46 512.704 282.68 516.961 282.76C518.969 282.76 521.158 282.8 523.528 282.881C525.898 282.961 528.207 283.342 530.456 284.023C532.706 284.705 534.553 285.887 535.999 287.571C537.445 289.255 538.168 291.701 538.168 294.908C538.168 298.275 537.345 301.422 535.698 304.349C534.051 307.276 531.822 309.861 529.011 312.106C526.199 314.351 522.986 316.095 519.371 317.338C515.756 318.581 512.061 319.202 508.286 319.202ZM511.78 269.531C507.924 269.531 504.631 268.809 501.9 267.366C499.168 265.923 497.08 263.998 495.634 261.593C494.188 259.187 493.465 256.622 493.465 253.895C493.465 250.929 494.268 248.263 495.875 245.897C497.482 243.532 499.731 241.668 502.623 240.305C505.514 238.942 508.848 238.26 512.623 238.26C516.961 238.26 520.456 239.042 523.106 240.606C525.757 242.169 527.685 244.133 528.89 246.499C530.095 248.864 530.697 251.249 530.697 253.655C530.697 256.461 529.934 259.067 528.408 261.473C526.882 263.878 524.693 265.822 521.841 267.306C518.99 268.789 515.636 269.531 511.78 269.531ZM514.069 267.727C516.64 267.727 518.789 266.845 520.516 265.081C522.243 263.317 523.106 260.39 523.106 256.301C523.106 252.853 522.504 249.927 521.299 247.521C520.094 245.116 518.487 243.272 516.479 241.989C514.471 240.706 512.222 240.064 509.732 240.064C507.081 240.064 504.932 240.906 503.285 242.59C501.639 244.274 500.815 247.08 500.815 251.009C500.815 254.777 501.498 257.904 502.864 260.39C504.229 262.876 505.916 264.72 507.924 265.923C509.932 267.125 511.981 267.727 514.069 267.727ZM522.865 247.281L522.986 243.312C525.476 241.708 527.886 240.445 530.215 239.523C532.545 238.601 535.156 238.14 538.048 238.14C538.208 238.14 538.349 238.421 538.469 238.982C538.59 239.543 538.65 240.145 538.65 240.786C538.65 241.668 538.55 242.61 538.349 243.612C538.148 244.615 537.887 245.036 537.566 244.875C536.843 244.554 535.778 244.174 534.372 243.733C532.967 243.292 531.34 243.071 529.493 243.071C528.448 243.071 527.484 243.151 526.601 243.312C525.717 243.472 524.833 243.672 523.95 243.913L522.865 247.281Z" fill="#dfdeda" fill-rule="nonzero" opacity="1" stroke="none"/>
<path d="M579.672 289.17C579.437 289.17 579.32 288.914 579.32 288.403C579.32 287.891 579.437 287.635 579.672 287.635C582.719 287.635 584.693 287.06 585.591 285.909C586.49 284.758 586.939 282.392 586.939 278.811L586.939 258.092C586.939 252.976 586.08 249.246 584.361 246.901C582.641 244.556 579.906 243.384 576.155 243.384C573.342 243.384 570.45 244.364 567.481 246.325C564.511 248.286 561.971 250.972 559.861 254.383L559.392 252.848C562.831 247.817 566.25 244.108 569.649 241.721C573.049 239.334 576.507 238.14 580.023 238.14C584.321 238.14 587.662 239.44 590.046 242.041C592.429 244.641 593.621 248.542 593.621 253.743L593.621 278.811C593.621 282.392 594.07 284.758 594.969 285.909C595.868 287.06 597.841 287.635 600.889 287.635C601.123 287.635 601.24 287.891 601.24 288.403C601.24 288.914 601.123 289.17 600.889 289.17C599.56 289.17 597.978 289.127 596.141 289.042C594.305 288.957 592.371 288.914 590.339 288.914C588.307 288.914 586.353 288.957 584.478 289.042C582.602 289.127 581 289.17 579.672 289.17ZM548.139 289.17C547.905 289.17 547.788 288.914 547.788 288.403C547.788 287.891 547.905 287.635 548.139 287.635C551.187 287.635 553.16 287.06 554.059 285.909C554.958 284.758 555.407 282.392 555.407 278.811L555.407 253.487C555.407 250.674 555.114 248.606 554.528 247.284C553.942 245.963 552.867 245.302 551.304 245.302C550.523 245.302 549.605 245.473 548.55 245.814C547.495 246.155 546.303 246.624 544.974 247.221C544.662 247.306 544.408 247.135 544.212 246.709C544.017 246.283 544.076 245.984 544.388 245.814L557.986 238.779C558.22 238.694 558.455 238.652 558.689 238.652C559.236 238.652 559.94 239.547 560.799 241.337C561.659 243.128 562.089 245.728 562.089 249.139L562.089 278.811C562.089 282.392 562.538 284.758 563.437 285.909C564.335 287.06 566.309 287.635 569.356 287.635C569.591 287.635 569.708 287.891 569.708 288.403C569.708 288.914 569.591 289.17 569.356 289.17C568.028 289.17 566.445 289.127 564.609 289.042C562.772 288.957 560.838 288.914 558.806 288.914C556.775 288.914 554.821 288.957 552.945 289.042C551.07 289.127 549.468 289.17 548.139 289.17Z" fill="#dfdeda" fill-rule="nonzero" opacity="1" stroke="none"/>
<path d="M630.308 289.194C625.2 289.194 620.9 288.045 617.409 285.745C613.918 283.445 611.3 280.455 609.554 276.776C607.809 273.096 606.936 269.208 606.936 265.11C606.936 260.009 608.128 255.43 610.512 251.374C612.896 247.318 616.153 244.098 620.283 241.715C624.412 239.332 628.946 238.14 633.884 238.14C638.737 238.14 642.42 239.394 644.932 241.903C647.443 244.412 648.699 247.924 648.699 252.44C648.699 253.527 648.593 254.343 648.38 254.886C648.167 255.43 647.763 255.702 647.167 255.702L640.015 255.702C640.355 250.6 639.589 246.816 637.716 244.349C635.842 241.882 633.16 240.649 629.67 240.649C625.157 240.649 621.645 242.405 619.133 245.917C616.621 249.43 615.365 254.238 615.365 260.343C615.365 265.11 616.132 269.333 617.664 273.013C619.197 276.692 621.453 279.577 624.433 281.668C627.413 283.759 631.032 284.804 635.289 284.804C638.184 284.804 640.568 284.386 642.441 283.55C644.314 282.713 646.187 281.752 648.061 280.664C648.231 280.497 648.465 280.602 648.763 280.978C649.061 281.354 649.125 281.668 648.955 281.919C645.975 284.511 642.931 286.372 639.823 287.501C636.715 288.63 633.544 289.194 630.308 289.194ZM613.067 255.827L612.939 254.196L641.93 253.695L641.93 255.702L613.067 255.827Z" fill="#dfdeda" fill-rule="nonzero" opacity="1" stroke="none"/>
<path d="M672.521 289.17C668.959 289.17 665.615 288.187 662.488 286.22C659.361 284.253 656.864 281.528 654.996 278.045C653.129 274.562 652.195 270.444 652.195 265.691C652.195 261.02 653.129 256.984 654.996 253.583C656.864 250.182 659.274 247.375 662.228 245.162C665.181 242.95 668.395 241.29 671.869 240.184C675.344 239.077 678.688 238.524 681.902 238.524C684.942 238.524 687.809 239.016 690.501 239.999C693.194 240.983 695.626 242.335 697.798 244.056L696.365 252.292C694.193 249.096 691.761 246.412 689.068 244.24C686.375 242.069 682.814 240.983 678.384 240.983C673.085 240.983 668.807 242.765 665.55 246.33C662.293 249.895 660.664 255.119 660.664 262.003C660.664 266.674 661.402 270.71 662.879 274.111C664.356 277.512 666.397 280.135 669.003 281.979C671.609 283.823 674.475 284.745 677.602 284.745C681.511 284.745 684.986 283.72 688.026 281.671C691.066 279.623 693.933 277.164 696.625 274.296L697.668 275.156C695.843 277.123 693.715 279.192 691.283 281.364C688.851 283.536 686.093 285.38 683.009 286.896C679.926 288.412 676.43 289.17 672.521 289.17ZM701.707 199.433L701.707 274.05C701.707 277 702.054 279.131 702.749 280.442C703.444 281.753 704.66 282.409 706.397 282.409C707.266 282.409 708.287 282.307 709.459 282.102C710.632 281.897 711.87 281.426 713.173 280.688C713.607 280.524 713.933 280.668 714.15 281.118C714.367 281.569 714.302 281.876 713.954 282.04L699.622 288.432C699.275 288.596 698.927 288.678 698.58 288.678C697.537 288.678 696.582 287.736 695.713 285.851C694.845 283.966 694.41 281.221 694.41 277.615L694.41 214.185C694.41 211.234 694.106 209.104 693.498 207.792C692.89 206.481 691.761 205.826 690.111 205.826C689.329 205.826 688.482 205.969 687.57 206.256C686.658 206.543 685.507 206.973 684.117 207.547C683.77 207.71 683.487 207.547 683.27 207.055C683.053 206.563 683.075 206.276 683.335 206.194L699.883 198.573C700.056 198.491 700.273 198.45 700.534 198.45C700.795 198.45 701.055 198.552 701.316 198.757C701.576 198.962 701.707 199.188 701.707 199.433Z" fill="#dfdeda" fill-rule="nonzero" opacity="1" stroke="none"/>
</g>
</g>
</g>
</svg>
