<?xml version="1.0" encoding="UTF-8" standalone="no"?>
<!DOCTYPE svg PUBLIC "-//W3C//DTD SVG 1.1//EN" "http://www.w3.org/Graphics/SVG/1.1/DTD/svg11.dtd">
<!-- Created with Vectornator (http://vectornator.io/) -->
<svg height="100%" stroke-miterlimit="10" style="fill-rule:nonzero;clip-rule:evenodd;stroke-linecap:round;stroke-linejoin:round;" version="1.1" viewBox="114.525 122.247 133.973 210.073" width="100%" xml:space="preserve" xmlns="http://www.w3.org/2000/svg" xmlns:vectornator="http://vectornator.io" xmlns:xlink="http://www.w3.org/1999/xlink">
<defs>
<path d="M220.932 161.663C220.932 139.891 203.287 122.247 181.516 122.247C159.744 122.247 142.09 139.891 142.09 161.663L142.09 284.271C151.28 314.794 178.966 332.272 220.932 332.319C220.932 332.319 220.932 284.271 220.932 284.271L220.932 161.663Z" id="Fill"/>
<path d="M220.932 161.663C220.932 139.891 203.287 122.247 181.516 122.247C159.744 122.247 142.09 139.891 142.09 161.663L142.09 284.271C151.28 314.794 178.966 332.272 220.932 332.319C220.932 332.319 220.932 284.271 220.932 284.271L220.932 161.663Z" id="Fill_2"/>
</defs>
<clipPath id="ArtboardFrame">
<rect height="210.073" width="133.973" x="114.525" y="122.247"/>
</clipPath>
<g clip-path="url(#ArtboardFrame)" id="Layer" vectornator:layerName="Layer">
<g opacity="1" vectornator:layerName="Group 48">
<path d="M241.488 135.816C238.707 136.219 237.032 136.994 235.515 138.117C230.133 142.642 228.737 153.557 223.077 159.396C214.033 168.724 202.981 168.507 191.593 166.497C194.286 165.09 197.371 164.282 199.671 162.295C204.563 158.07 208.945 147.563 201.387 142.973C198.279 141.086 194.77 138.844 191.149 139.186C187.886 139.494 184.377 141.74 183.012 144.719C180.325 150.583 180.924 157.44 179.875 163.805C175.149 164.455 170.323 164.572 165.702 165.757C157.71 167.807 150.33 172.216 142.178 173.48C136.589 174.347 124.373 173.569 118.73 173.648C118.066 175.058 121.315 175.04 119.959 176.017C119.238 176.536 115.283 176.231 114.565 178.245C113.848 180.258 122.829 182.871 122.829 182.871C128.51 179.54 138.368 183.671 144.038 184.357C151.452 185.254 158.842 178.281 167.181 179.369C168.453 185.693 169.724 193.6 166.53 199.579C162.106 207.862 156.322 214.566 157.476 224.878C159.07 239.131 168.05 248.197 173.306 260.475C175.222 264.949 167.562 271.28 166.797 272.607C163.735 277.913 163.968 284.522 162.417 290.449C160.844 296.464 154.665 304.534 154.665 304.534C154.665 304.534 162.936 317.453 169.46 317.475C169.22 313.589 166.737 301.568 168.957 297.196C173.789 287.674 181.069 279.579 186.503 270.387C190.868 263.005 189.118 255.235 187.273 247.041C185.816 240.572 184.749 232.716 179.431 228.754C180.075 227.972 180.06 227.968 180.704 227.186C184.171 229.417 187.342 232.251 191.119 233.903C197.638 236.755 205.653 236.857 211.063 241.478C206.331 248.444 199.027 256.745 198.339 265.416C196.945 265.76 193.959 265.993 194.966 268.938C197.209 275.495 200.651 284.24 207.453 285.567C207.88 283.546 209.275 281.492 208.725 279.501C206.701 272.171 203.18 274.418 206.773 267.665C212.137 257.581 232.058 250.72 228.284 236.951C224.302 222.419 205.007 220.108 195.114 213.545C191.811 211.355 188.21 206.327 190.025 202.804C192.057 198.859 195.396 195.684 197.481 191.767C199.097 188.732 198.26 184.085 201.062 182.091C205.34 179.046 211.444 180.182 216.36 178.333C220.771 176.674 227.165 172.103 229.409 167.503C232.211 161.757 232.732 154.923 236.185 149.542C238.06 146.62 241.492 144.833 244.736 143.595C245.39 143.345 247.412 141.245 246.77 140.411C246.127 139.578 248.822 138.422 248.465 136.463C248.43 136.272 247.406 135.922 246.896 135.812C246.224 135.77 244.268 135.413 241.488 135.816Z" fill="#dfdeda" fill-rule="nonzero" opacity="1" stroke="none" vectornator:layerName="Curve 177"/>
<g opacity="1">
<mask height="210.073" id="StrokeMask" maskUnits="userSpaceOnUse" width="78.8419" x="142.09" y="122.247">
<rect fill="#000000" height="210.073" stroke="none" width="78.8419" x="142.09" y="122.247"/>
<use fill="#ffffff" fill-rule="evenodd" stroke="none" xlink:href="#Fill"/>
</mask>
<use fill="none" mask="url(#StrokeMask)" stroke="#dfdeda" stroke-linecap="butt" stroke-linejoin="round" stroke-width="4" xlink:href="#Fill"/>
</g>
<g opacity="1" vectornator:layerName="Curve 180">
<mask height="210.073" id="StrokeMask_2" maskUnits="userSpaceOnUse" width="78.8419" x="142.09" y="122.247">
<rect fill="#000000" height="210.073" stroke="none" width="78.8419" x="142.09" y="122.247"/>
<use fill="#ffffff" fill-rule="evenodd" stroke="none" xlink:href="#Fill_2"/>
</mask>
<use fill="none" mask="url(#StrokeMask_2)" stroke="#dfdeda" stroke-linecap="butt" stroke-linejoin="round" stroke-width="4" xlink:href="#Fill_2"/>
</g>
</g>
</g>
</svg>
